<?xml version="1.0" encoding="UTF-8" standalone="no"?>
<svg width="16px" height="14px" viewBox="0 0 16 14" version="1.1" xmlns="http://www.w3.org/2000/svg" xmlns:xlink="http://www.w3.org/1999/xlink">
    <!-- Generator: Sketch 3.7.2 (28276) - http://www.bohemiancoding.com/sketch -->
    <title>Fill 1</title>
    <desc>Created with Sketch.</desc>
    <defs></defs>
    <g id="home-2nd-draft" stroke="none" stroke-width="1" fill="none" fill-rule="evenodd">
        <g id="6.1.me-likes" transform="translate(-73.000000, -194.000000)" fill="#BABABA">
            <g id="owner" transform="translate(73.000000, 66.000000)">
                <g id="Group">
                    <g id="Group-4" transform="translate(0.000000, 124.000000)">
                        <path d="M15.0000313,7.65519617 L15.0000313,13.3704481 L15.0000313,14.5673044 C15.0000313,15.3713874 14.3477471,16.0236716 13.5436641,16.0236716 L12.3438019,16.0236716 L3.65619814,16.0236716 L2.45633591,16.0236716 C1.65175189,16.0236716 0.999968688,15.3713874 0.999968688,14.5673044 L0.999968688,13.3704481 L0.999968688,7.65519617 L0.999968688,6.45884084 C0.999968688,6.17878949 1.08263143,5.91927858 1.21990168,5.69734164 L1.30957823,5.76948367 L3.30650969,7.37113693 L7.63052259,10.8394652 C7.63703541,10.84698 7.6340295,10.8580017 7.64154429,10.8655165 C7.73372577,10.9586999 7.85446347,10.9987788 7.97620315,11.0017848 C7.98421893,11.0017848 7.99173373,11.0057927 7.99974951,11.0052917 L7.99974951,11.0052917 L7.99974951,11.0052917 C8.00826627,11.0057927 8.01578107,11.0017848 8.02379685,11.0017848 C8.14553653,10.9987788 8.26577324,10.9586999 8.35845571,10.8655165 C8.3659705,10.8580017 8.36296459,10.84698 8.36947741,10.8394652 L12.6934903,7.37113693 L14.6899208,5.76948367 L14.7800983,5.69734164 C14.9168676,5.91927858 15.0000313,6.17878949 15.0000313,6.45884084 L15.0000313,7.65519617 Z M3.65619814,5.00247362 L12.3438019,5.00247362 L13.5436641,5.00247362 C13.6989698,5.00247362 13.8457588,5.03303379 13.986536,5.07812255 L8.14353258,9.76635251 L7.99974951,9.88157936 L7.85596643,9.76635251 L2.01346401,5.07812255 C2.15374018,5.03303379 2.30103015,5.00247362 2.45633591,5.00247362 L3.65619814,5.00247362 Z M15.964931,5.61017002 C15.9609231,5.58712465 15.9584181,5.56407928 15.9534083,5.5415349 C15.9303629,5.43382284 15.8972978,5.33061966 15.8572189,5.23042239 C15.8507061,5.21489182 15.8461972,5.19886026 15.8396844,5.18383067 C15.7925917,5.07411466 15.7359802,4.9704105 15.670351,4.87171619 C15.6683471,4.86820929 15.6663431,4.86470238 15.6638382,4.86119548 C15.3146507,4.34367661 14.7294987,4.00050099 14.0571751,4 L14.0556721,4 L14.0431474,4 L14.0426465,4 L14.0416445,4 L1.95785453,4 L1.95735354,4 L1.95685255,4 L1.9443279,4 L1.94282494,4 C1.2705013,4.00050099 0.685349281,4.34367661 0.335660832,4.86119548 C0.333656887,4.86470238 0.331652942,4.86820929 0.32914801,4.87171619 C0.264019789,4.9704105 0.207408335,5.07411466 0.159814635,5.18383067 C0.153301813,5.19886026 0.148792936,5.21489182 0.1427811,5.23042239 C0.102702195,5.33061966 0.069637098,5.43382284 0.0460907411,5.5415349 C0.0415818643,5.56407928 0.0390769327,5.58712465 0.0345680559,5.61017002 C0.0220433979,5.67980712 0.00500986317,5.74794126 0,5.82008329 L0,5.95735354 L0,6.09512478 L0,15.0682907 C0,16.1494192 0.876225068,17.0256442 1.95735354,17.0256442 L14.0426465,17.0256442 C15.1237749,17.0256442 16,16.1494192 16,15.0682907 L16,6.09512478 L16,5.95735354 L16,5.82008329 C15.9949901,5.74794126 15.9774556,5.67980712 15.964931,5.61017002 L15.964931,5.61017002 Z" id="Fill-1"></path>
                    </g>
                </g>
            </g>
        </g>
    </g>
</svg>