<svg xmlns="http://www.w3.org/2000/svg" viewBox="0 0 32 32"><path d="M9 30.3c-.3 0-.6-.1-.8-.2-1-.6-1.2-2.1-1.2-3.4 0-2.7 3.6-10.9 9-10.9s9 8.2 9 10.9c0 1.4-.1 2.9-1.2 3.4-1.1.6-2.2-.1-3.5-.9-1.2-.8-2.7-1.7-4.3-1.7s-3.1.9-4.3 1.7c-1 .6-1.9 1.1-2.7 1.1zm7-4.8c2.1 0 4 1.2 5.4 2 .5.3 1.1.7 1.5.8.1-.2.2-.6.2-1.6 0-2.1-3.2-8.9-7-8.9s-7 6.8-7 8.9c0 1 .1 1.4.2 1.6.3-.1 1-.5 1.5-.8 1.2-.8 3.1-2 5.2-2zM5.6 21.4h-.2c-1.3-.1-2.7-.9-3.7-2.1-1.8-2.2-2-4.9-.5-6.3.6-.6 1.4-.8 2.3-.8 1.3.1 2.7.9 3.8 2.1 1.8 2.1 2 4.9.5 6.3-.7.6-1.4.8-2.2.8zm-2.4-7.2c-.3 0-.5.1-.7.2-.6.6-.5 2.2.7 3.6.7.8 1.6 1.3 2.3 1.4.3 0 .6-.1.8-.2.6-.6.4-2.2-.7-3.6-.7-.8-1.6-1.4-2.4-1.4zM26.6 21c-.7 0-1.3-.2-1.8-.6-1.6-1.3-1.6-4.1 0-6.4.9-1.4 2.3-2.3 3.6-2.5.9-.1 1.7.1 2.3.6 1.6 1.3 1.6 4.1 0 6.4-.9 1.4-2.3 2.3-3.6 2.5-.2-.1-.3 0-.5 0zm2.3-7.5h-.2c-.8.1-1.6.7-2.2 1.6-1 1.5-1 3.2-.4 3.7.2.2.5.2.8.2.8-.1 1.6-.7 2.2-1.6 1-1.5 1-3.2.4-3.7-.2-.2-.4-.2-.6-.2zM12 15.2c-.7 0-1.4-.2-2-.6-1.5-.9-2.7-2.8-3.2-5.1-.8-3.7.5-7.1 3-7.7.9-.2 1.8 0 2.7.5 1.5.9 2.7 2.8 3.2 5.1.8 3.7-.5 7.1-3 7.7-.2.1-.4.1-.7.1zM10.6 3.7h-.3c-1.2.4-2.1 2.6-1.5 5.4.4 1.7 1.2 3.2 2.3 3.8.4.3.9.4 1.2.3 1.2-.3 2.1-2.6 1.5-5.3-.4-1.7-1.3-3.2-2.3-3.8-.3-.3-.6-.4-.9-.4zm9.6 11.4c-.2 0-.5 0-.7-.1-2.5-.6-3.8-3.9-3-7.7.5-2.3 1.7-4.2 3.2-5.1.9-.6 1.8-.7 2.8-.5 2.5.6 3.8 4 3 7.7-.5 2.2-1.7 4.1-3.1 5-.8.5-1.5.7-2.2.7zm1.4-11.4c-.3 0-.6.1-.9.3-1 .6-1.9 2.1-2.3 3.8-.6 2.8.3 5.1 1.5 5.3.4.1.8 0 1.3-.3 1-.6 1.9-2.1 2.2-3.8.6-2.8-.3-5-1.5-5.3h-.3z"/></svg>