<svg data-name="Layer 1" xmlns="http://www.w3.org/2000/svg" viewBox="0 0 32 32"><path d="M15.98 32A16 16 0 0 1 2.15 8a16.16 16.16 0 0 1 1.33-2 16 16 0 1 1 12.5 26zm14-16a13.85 13.85 0 0 0-.16-1.85 13.5 13.5 0 0 0-1.84-.15 13.86 13.86 0 0 0-6.23 1.52 24 24 0 0 1 4.64 9.75A13.89 13.89 0 0 0 29.98 16zm-5.3 10.91a22.32 22.32 0 0 0-4.64-10.41A14 14 0 0 0 13.98 28a13.6 13.6 0 0 0 .15 1.84 13.8 13.8 0 0 0 1.85.16 13.87 13.87 0 0 0 8.7-3.09zM12.09 29.4c0-.46-.09-.93-.09-1.4a16 16 0 0 1 6.72-13 22.78 22.78 0 0 0-1.74-1.67 16 16 0 0 1-13 6.67c-.47 0-.92 0-1.38-.09a14 14 0 0 0 9.49 9.49zM4.45 8.09A13.92 13.92 0 0 0 1.98 16a13.77 13.77 0 0 0 .19 1.86 13.52 13.52 0 0 0 1.81.14 14 14 0 0 0 11.39-5.91 22.31 22.31 0 0 0-10.92-4zm13.4-5.91A13.84 13.84 0 0 0 15.98 2a13.94 13.94 0 0 0-10 4.28 24.37 24.37 0 0 1 10.45 4.09A13.85 13.85 0 0 0 17.98 4a13.64 13.64 0 0 0-.12-1.81zm2.06.44c.07.46.07.91.07 1.38a15.93 15.93 0 0 1-2 7.68 25.06 25.06 0 0 1 2.36 2.24A15.92 15.92 0 0 1 27.98 12c.47 0 .94 0 1.4.09a14 14 0 0 0-9.47-9.47z" fill-rule="evenodd"/></svg>