<svg data-name="Layer 1" xmlns="http://www.w3.org/2000/svg" viewBox="0 0 32 32"><path d="M.72 13.52c-1.17 1.11-.87 3.51.67 5.36s3.74 2.44 4.91 1.33.87-3.51-.67-5.35-3.74-2.45-4.91-1.34zm25.62.92c-1.38 2-1.46 4.41-.2 5.4s3.4.16 4.77-1.84 1.46-4.41.2-5.4-3.4-.15-4.77 1.84zM12.27 14c2.06-.51 3.14-3.67 2.4-7s-3-5.71-5.06-5.2-3.13 3.59-2.4 6.97 3.01 5.71 5.06 5.23zM22.62 1.72c-2.06-.51-4.32 1.82-5.06 5.2s.34 6.54 2.4 7 4.32-1.82 5.06-5.2-.34-6.49-2.4-7zM16 16.83c-4.91 0-8.6 8-8.6 10.67 0 6.52 3.69-.21 8.6-.21s8.6 6.73 8.6.21c0-2.64-3.68-10.67-8.6-10.67z"/></svg>