<svg data-name="Layer 1" xmlns="http://www.w3.org/2000/svg" viewBox="0 0 32 32"><path d="M30.33 8.36a2.68 2.68 0 0 0 0-.32v-.09l-.56.05.49-.12v-.11A4.42 4.42 0 0 0 30 7.1a4 4 0 0 0-.35-.64 3.87 3.87 0 0 0-3.22-1.71H5.53a3.87 3.87 0 0 0-3.21 1.73 4 4 0 0 0-.37.71 3.9 3.9 0 0 0-.21.71l.5.1h-.52a2.56 2.56 0 0 0-.05.37v16a3.89 3.89 0 0 0 3.88 3.88h20.9a3.89 3.89 0 0 0 3.88-3.88v-16zM27.6 9.5v14a2 2 0 0 1-2 2H6.41a2 2 0 0 1-2-2v-14a2 2 0 0 1 .06-.5l10.45 8.37.08.1a1.53 1.53 0 0 0 .84.37h.19a1.32 1.32 0 0 0 .97-.37L27.53 9a1.94 1.94 0 0 1 .07.5zM16 14.78l-9.09-7.3h18.18z"/></svg>